<?xml version="1.0" standalone="no"?>
<!DOCTYPE svg PUBLIC "-//W3C//DTD SVG 20010904//EN"
 "http://www.w3.org/TR/2001/REC-SVG-20010904/DTD/svg10.dtd">
<svg version="1.0" xmlns="http://www.w3.org/2000/svg"
 width="1000.000000pt" height="1000.000000pt" viewBox="0 0 1000.000000 1000.000000"
 preserveAspectRatio="xMidYMid meet">
<metadata>
Created by potrace 1.11, written by Peter Selinger 2001-2013
</metadata>
<g transform="translate(0.000000,1000.000000) scale(0.100000,-0.100000)"
fill="#000000" stroke="none">
<path d="M4785 7723 c-121 -81 -221 -151 -223 -155 -2 -4 -8 -8 -13 -8 -8 0
-219 -138 -229 -151 -3 -3 -10 -8 -15 -10 -12 -5 -706 -468 -718 -479 -5 -4
92 -75 215 -156 122 -82 225 -151 228 -154 6 -6 622 -419 648 -435 29 -17 77
-49 82 -55 11 -11 216 -146 234 -153 14 -5 38 5 90 40 39 27 73 51 76 54 3 3
10 8 15 10 6 2 57 36 114 74 56 39 114 77 126 85 60 38 921 616 925 620 3 3
25 18 48 33 24 16 42 31 39 33 -2 3 -296 200 -653 439 -357 239 -653 438 -659
442 -5 5 -28 20 -50 33 -22 13 -41 28 -43 32 -2 4 -7 8 -11 8 -4 0 -106 -66
-226 -147z"/>
<path d="M1960 5830 c-107 -71 -204 -136 -215 -144 -11 -8 -186 -126 -390
-262 -203 -135 -388 -259 -410 -274 -22 -15 -79 -53 -127 -85 -49 -32 -88 -62
-88 -65 0 -4 197 -139 438 -300 240 -162 559 -375 709 -476 l271 -182 514 343
c282 189 518 347 523 352 6 5 35 24 65 43 30 19 57 37 60 40 3 3 62 43 133 90
70 46 127 86 127 89 -1 6 -245 173 -265 180 -5 2 -12 7 -15 10 -3 4 -66 47
-140 96 -74 50 -136 93 -138 97 -2 5 -10 8 -18 8 -8 0 -14 4 -14 9 0 5 -13 14
-29 21 -16 6 -37 19 -47 28 -11 10 -50 37 -89 62 -38 24 -72 47 -75 50 -13 13
-132 90 -139 90 -5 0 -11 3 -13 8 -5 10 -307 212 -318 212 -6 0 -10 4 -10 8 0
5 -12 15 -27 23 -16 8 -30 16 -33 19 -44 44 -32 49 -240 -90z"/>
<path d="M7520 5729 c-179 -120 -329 -222 -335 -226 -12 -10 -64 -44 -87 -58
-10 -5 -50 -32 -90 -60 -40 -27 -80 -54 -90 -60 -9 -5 -44 -29 -77 -52 -33
-24 -65 -43 -70 -43 -5 0 -11 -3 -13 -8 -1 -4 -74 -54 -160 -112 -87 -58 -157
-108 -158 -111 0 -3 55 -43 123 -87 67 -44 138 -92 157 -105 19 -13 69 -46
110 -73 41 -27 79 -53 85 -57 5 -5 221 -149 479 -322 l469 -313 241 162 c930
625 1121 753 1151 770 33 18 34 20 17 35 -15 14 -261 180 -304 206 -10 5 -158
105 -330 221 -630 424 -767 514 -780 513 -7 -1 -159 -99 -338 -220z"/>
<path d="M4978 4027 c-7 -7 -40 -30 -73 -52 -33 -21 -62 -42 -65 -45 -3 -4
-10 -9 -15 -11 -10 -4 -265 -172 -290 -191 -5 -5 -46 -32 -90 -61 -489 -324
-865 -581 -858 -587 4 -4 152 -104 328 -221 176 -118 322 -217 323 -221 2 -5
8 -8 13 -8 7 0 103 -61 144 -93 35 -26 115 -79 139 -93 16 -9 55 -35 87 -58
32 -22 72 -50 90 -61 19 -11 43 -27 55 -35 171 -116 231 -155 241 -154 6 1
141 88 300 194 758 508 1109 743 1116 750 5 4 -148 112 -340 240 -191 129
-511 343 -711 477 -199 134 -366 243 -371 243 -5 0 -16 -6 -23 -13z"/>
</g>
</svg>
